<svg id="Capa_1" enable-background="new 0 0 512 512" height="512" viewBox="0 0 512 512" width="512" xmlns="http://www.w3.org/2000/svg"><g><path d="m481.04 109.72v317.28h-451.15v-316.88l224.41-83.79c.56-.21 1.16-.32 1.75-.32s1.18.11 1.75.32z" fill="#e6faff"/><path d="m481.04 109.72v317.28h-224.99v-400.99c.59 0 1.18.11 1.75.32z" fill="#ccf8ff"/><path d="m502.244 90.948-240.943-90c-3.385-1.263-7.113-1.264-10.499 0l-241.043 90c-7.762 2.897-11.705 11.539-8.806 19.3 2.898 7.76 11.542 11.706 19.303 8.804l235.794-88.039 235.694 88.039c1.73.646 3.504.952 5.248.952 6.081 0 11.802-3.725 14.056-9.754 2.899-7.761-1.043-16.402-8.804-19.302z" fill="#22e0e0"/><path d="m511.046 110.25c-2.25 6.03-7.971 9.75-14.053 9.75-1.75 0-3.521-.3-5.251-.95l-10.702-4-224.99-84.04v-31.01c1.79 0 3.561.32 5.251.95l240.943 90c7.761 2.9 11.702 11.54 8.802 19.3z" fill="#22c7e0"/><path d="m278.554 83.5h-7.501v-7.5c0-8.284-6.717-15-15.003-15s-15.003 6.716-15.003 15v7.5h-7.501c-8.286 0-15.003 6.716-15.003 15s6.717 15 15.003 15h7.501v7.5c0 8.284 6.717 15 15.003 15s15.003-6.716 15.003-15v-7.5h7.501c8.286 0 15.003-6.716 15.003-15s-6.717-15-15.003-15z" fill="#f4425c"/><path d="m293.557 98.5c0 8.28-6.721 15-15.003 15h-7.501v7.5c0 8.28-6.721 15-15.003 15v-75c8.282 0 15.003 6.72 15.003 15v7.5h7.501c8.282 0 15.003 6.72 15.003 15z" fill="#dd124c"/><path d="m331.113 256.05v170.95h-150.126v-170.95c0-41.38 33.676-75.05 75.063-75.05s75.063 33.67 75.063 75.05z" fill="#004071"/><path d="m331.113 256.05v170.95h-75.063v-246c41.387 0 75.063 33.67 75.063 75.05z" fill="#00244c"/><path d="m256.05 211c24.845 0 45.058 20.209 45.058 45.05v74.95h-90.116v-74.95c0-24.841 20.213-45.05 45.058-45.05z" fill="#005a96"/><path d="m301.108 256.05v74.95h-45.058v-120c24.845 0 45.058 20.21 45.058 45.05z" fill="#004071"/><path d="m210.992 361h90.116v60h-90.116z" fill="#005a96"/><path d="m256.05 361h45.058v60h-45.058z" fill="#004071"/><path d="m496.043 422h-480.086c-8.286 0-15.003 6.716-15.003 15v60c0 8.284 6.717 15 15.003 15h480.086c8.286 0 15.003-6.716 15.003-15v-60c0-8.284-6.717-15-15.003-15z" fill="#b0f2ff"/><path d="m511.046 437v60c0 8.28-6.721 15-15.003 15h-239.993v-90h239.993c8.281 0 15.003 6.72 15.003 15z" fill="#84eef9"/></g></svg>