<svg id="Capa_1" enable-background="new 0 0 512 512" height="512" viewBox="0 0 512 512" width="512" xmlns="http://www.w3.org/2000/svg"><g><path d="m60.998 136v331c0 24.853 20.147 45 45 45h300c24.853 0 45-20.147 45-45v-331c0-5.523-4.477-10-10-10h-370c-5.523 0-10 4.477-10 10z" fill="#e6faff"/><path d="m451.002 136v331c0 24.85-20.15 45-45 45h-150.03v-386h185.03c5.52 0 10 4.48 10 10z" fill="#ccf8ff"/><g fill="#84eef9"><path d="m135.947 211h105c8.284 0 15-6.716 15-15s-6.716-15-15-15h-105c-8.284 0-15 6.716-15 15s6.716 15 15 15z"/><path d="m240.998 241h-105c-8.284 0-15 6.716-15 15s6.716 15 15 15h105c8.284 0 15-6.716 15-15s-6.716-15-15-15z"/><path d="m135.947 331h239.976c8.284 0 15-6.716 15-15s-6.716-15-15-15h-239.976c-8.284 0-15 6.716-15 15s6.716 15 15 15z"/></g><path d="m390.922 316c0 8.28-6.72 15-15 15h-119.95v-30h119.95c8.28 0 15 6.72 15 15z" fill="#22e0e0"/><path d="m375.947 361h-240c-8.284 0-15 6.716-15 15s6.716 15 15 15h240c8.284 0 15-6.716 15-15s-6.716-15-15-15z" fill="#84eef9"/><path d="m390.942 376c0 8.28-6.71 15-15 15h-119.97v-30h119.97c8.29 0 15 6.72 15 15z" fill="#22e0e0"/><path d="m375.947 421h-240c-8.284 0-15 6.716-15 15s6.716 15 15 15h240c8.284 0 15-6.716 15-15s-6.716-15-15-15z" fill="#84eef9"/><path d="m390.942 436c0 8.28-6.71 15-15 15h-119.97v-30h119.97c8.29 0 15 6.72 15 15z" fill="#22e0e0"/><path d="m315.972 241h15v15.209c0 8.284 6.716 15 15 15s15-6.716 15-15v-15.209h15c8.284 0 15-6.716 15-15s-6.716-15-15-15h-15v-15c0-8.284-6.716-15-15-15s-15 6.716-15 15v15h-15c-8.284 0-15 6.716-15 15s6.716 15 15 15z" fill="#dd124c"/><path d="m450.998 76.417c0-24.813-20.187-45-45-45h-300c-24.813 0-45 20.187-45 45v59.583h390z" fill="#f4425c"/><path d="m451.002 76.42v59.58h-195.03v-104.58h150.03c24.81 0 45 20.18 45 45z" fill="#dd124c"/><path d="m316.022 0h-120.1c-8.284 0-15 6.716-15 15v60.569c0 8.284 6.716 15 15 15h120.1c8.284 0 15-6.716 15-15v-60.569c0-8.284-6.716-15-15-15z" fill="#004071"/><path d="m331.022 15v60.57c0 8.28-6.72 15-15 15h-60.05v-90.57h60.05c8.28 0 15 6.72 15 15z" fill="#00244c"/></g></svg>