<svg id="Capa_1" enable-background="new 0 0 512.08 512.08" height="512" viewBox="0 0 512.08 512.08" width="512" xmlns="http://www.w3.org/2000/svg"><g><path d="m442.591 153.797h-87.42c6.315-14.009 9.626-29.273 9.626-44.797 0-9.049-1.113-18.047-3.307-26.744-1.013-4.016-5.089-6.45-9.107-5.438-4.016 1.014-6.451 5.091-5.437 9.107 1.892 7.499 2.851 15.262 2.851 23.074 0 15.708-3.921 31.104-11.353 44.797h-48.242c4.138-5.287 6.549-11.563 6.549-18.297 0-16.506-14.433-30.296-33.5-33.36v-37.713c10.597 2.498 18.5 9.765 18.5 18.074 0 4.143 3.358 7.5 7.5 7.5s7.5-3.357 7.5-7.5c0-16.506-14.433-30.296-33.5-33.36v-11.64c0-4.143-3.358-7.5-7.5-7.5s-7.5 3.357-7.5 7.5v11.494c-19.56 2.735-34.5 16.713-34.5 33.506s14.94 30.771 34.5 33.506v37.786c-11.096-2.265-19.5-9.723-19.5-18.292 0-4.143-3.358-7.5-7.5-7.5s-7.5 3.357-7.5 7.5c0 6.733 2.411 13.01 6.549 18.297h-47.15c-7.432-13.693-11.353-29.088-11.353-44.797 0-51.832 42.168-94 94-94 31.219 0 60.33 15.451 77.871 41.331 2.324 3.429 6.988 4.325 10.417 2 3.429-2.323 4.324-6.987 2-10.416-20.336-30.003-54.088-47.915-90.288-47.915-60.103 0-109 48.897-109 109 0 15.524 3.311 30.788 9.626 44.797h-86.934c-12.407 0-22.5 10.094-22.5 22.5v13.321c0 11.169 8.182 20.46 18.867 22.203l54.455 61.285c2.751 3.096 7.492 3.377 10.588.625 3.097-2.751 3.376-7.492.625-10.588l-45.337-51.024h339.642l-128.072 143.28h-30.207c-4.142 0-7.5 3.357-7.5 7.5s3.358 7.5 7.5 7.5h26.053l-.055 43.729c-.005 4.143 3.349 7.505 7.491 7.51h.009c4.138 0 7.495-3.352 7.5-7.49l.06-48.382 137.602-153.943c10.692-1.737 18.881-11.031 18.881-22.205v-13.321c0-12.406-10.093-22.5-22.5-22.5zm-160.84-18.297c0 8.31-7.903 15.576-18.5 18.074v-36.148c10.598 2.498 18.5 9.764 18.5 18.074zm-53-53c0-8.569 8.404-16.027 19.5-18.292v36.584c-11.096-2.265-19.5-9.723-19.5-18.292zm221.34 107.118c0 4.136-3.365 7.5-7.5 7.5h-373.102c-4.136 0-7.5-3.364-7.5-7.5v-13.321c0-4.136 3.364-7.5 7.5-7.5h99.262c.015 0 .031.003.046.003s.029-.003.044-.003h173.911c.015 0 .029.003.044.003.016 0 .031-.003.046-.003h99.748c4.135 0 7.5 3.364 7.5 7.5v13.321z"/><path d="m301.014 441.638c-.003 0-.006 0-.009 0-4.138 0-7.495 3.352-7.5 7.49l-.044 35.716c.303 9.478-10.645 15.502-18.751 10.288 0 0-47.706-29.696-48.29-30.172-7.348-5.983-8.788-7.506-8.788-11.512v-83.049h14.919c4.142 0 7.5-3.357 7.5-7.5s-3.358-7.5-7.5-7.5h-19.051l-58.726-66.091c-2.751-3.097-7.491-3.378-10.588-.625-3.097 2.751-3.376 7.492-.625 10.588l59.07 66.479v87.698c0 11.484 6.634 16.887 14.315 23.143.947.734 49.883 31.305 49.883 31.305 11.703 7.294 27.326 4.936 35.884-6.155 3.751-4.851 5.739-10.686 5.747-16.877l.044-35.716c.006-4.143-3.348-7.505-7.49-7.51z"/></g></svg>